STARTFONT 2.1
COMMENT
COMMENT Converted from OpenType font "ABeeZee.otf" by "otf2bdf 3.0".
COMMENT
FONT -FreeType-ABeeZee-Medium-R-Normal--12-90-100-100-P-53-ISO10646-1
SIZE 9 100 100
FONTBOUNDINGBOX 13 15 -1 -3
STARTPROPERTIES 19
FOUNDRY "FreeType"
FAMILY_NAME "ABeeZee"
WEIGHT_NAME "Medium"
SLANT "R"
SETWIDTH_NAME "Normal"
ADD_STYLE_NAME ""
PIXEL_SIZE 12
POINT_SIZE 90
RESOLUTION_X 100
RESOLUTION_Y 100
SPACING "P"
AVERAGE_WIDTH 53
CHARSET_REGISTRY "ISO10646"
CHARSET_ENCODING "1"
FONT_ASCENT 11
FONT_DESCENT 3
COPYRIGHT "Copyright (c) 2011 by Anja Meiners, with Reserved Font Name 'ABeeZee'"
_OTF_FONTFILE "ABeeZee.otf"
_OTF_PSNAME "ABeeZee-Regular"
ENDPROPERTIES
CHARS 254
STARTCHAR 0000
ENCODING 0
SWIDTH 0 0
DWIDTH 0 0
BBX 0 0 0 0
BITMAP
ENDCHAR
STARTCHAR 0001
ENCODING 1
SWIDTH 0 0
DWIDTH 0 0
BBX 0 0 0 0
BITMAP
ENDCHAR
STARTCHAR 0002
ENCODING 2
SWIDTH 0 0
DWIDTH 0 0
BBX 0 0 0 0
BITMAP
ENDCHAR
STARTCHAR 0003
ENCODING 3
SWIDTH 0 0
DWIDTH 0 0
BBX 0 0 0 0
BITMAP
ENDCHAR
STARTCHAR 0004
ENCODING 4
SWIDTH 0 0
DWIDTH 0 0
BBX 0 0 0 0
BITMAP
ENDCHAR
STARTCHAR 0005
ENCODING 5
SWIDTH 0 0
DWIDTH 0 0
BBX 0 0 0 0
BITMAP
ENDCHAR
STARTCHAR 0006
ENCODING 6
SWIDTH 0 0
DWIDTH 0 0
BBX 0 0 0 0
BITMAP
ENDCHAR
STARTCHAR 0007
ENCODING 7
SWIDTH 0 0
DWIDTH 0 0
BBX 0 0 0 0
BITMAP
ENDCHAR
STARTCHAR 0008
ENCODING 8
SWIDTH 0 0
DWIDTH 0 0
BBX 0 0 0 0
BITMAP
ENDCHAR
STARTCHAR 0009
ENCODING 9
SWIDTH 0 0
DWIDTH 0 0
BBX 0 0 0 0
BITMAP
ENDCHAR
STARTCHAR 000D
ENCODING 13
SWIDTH 320 0
DWIDTH 4 0
BBX 0 0 0 0
BITMAP
ENDCHAR
STARTCHAR 0010
ENCODING 16
SWIDTH 0 0
DWIDTH 0 0
BBX 0 0 0 0
BITMAP
ENDCHAR
STARTCHAR 0011
ENCODING 17
SWIDTH 0 0
DWIDTH 0 0
BBX 0 0 0 0
BITMAP
ENDCHAR
STARTCHAR 0012
ENCODING 18
SWIDTH 0 0
DWIDTH 0 0
BBX 0 0 0 0
BITMAP
ENDCHAR
STARTCHAR 0013
ENCODING 19
SWIDTH 0 0
DWIDTH 0 0
BBX 0 0 0 0
BITMAP
ENDCHAR
STARTCHAR 0014
ENCODING 20
SWIDTH 0 0
DWIDTH 0 0
BBX 0 0 0 0
BITMAP
ENDCHAR
STARTCHAR 0015
ENCODING 21
SWIDTH 0 0
DWIDTH 0 0
BBX 0 0 0 0
BITMAP
ENDCHAR
STARTCHAR 0016
ENCODING 22
SWIDTH 0 0
DWIDTH 0 0
BBX 0 0 0 0
BITMAP
ENDCHAR
STARTCHAR 0017
ENCODING 23
SWIDTH 0 0
DWIDTH 0 0
BBX 0 0 0 0
BITMAP
ENDCHAR
STARTCHAR 0018
ENCODING 24
SWIDTH 0 0
DWIDTH 0 0
BBX 0 0 0 0
BITMAP
ENDCHAR
STARTCHAR 0019
ENCODING 25
SWIDTH 0 0
DWIDTH 0 0
BBX 0 0 0 0
BITMAP
ENDCHAR
STARTCHAR 0020
ENCODING 32
SWIDTH 320 0
DWIDTH 4 0
BBX 0 0 0 0
BITMAP
ENDCHAR
STARTCHAR 0021
ENCODING 33
SWIDTH 320 0
DWIDTH 4 0
BBX 2 9 1 0
BITMAP
C0
C0
C0
C0
80
80
00
80
C0
ENDCHAR
STARTCHAR 0022
ENCODING 34
SWIDTH 320 0
DWIDTH 4 0
BBX 3 3 0 6
BITMAP
A0
A0
A0
ENDCHAR
STARTCHAR 0023
ENCODING 35
SWIDTH 720 0
DWIDTH 9 0
BBX 7 9 1 0
BITMAP
22
24
7E
24
44
44
FE
48
48
ENDCHAR
STARTCHAR 0024
ENCODING 36
SWIDTH 640 0
DWIDTH 8 0
BBX 5 11 1 -1
BITMAP
20
78
C0
80
40
30
08
08
88
F0
20
ENDCHAR
STARTCHAR 0025
ENCODING 37
SWIDTH 880 0
DWIDTH 11 0
BBX 11 11 0 -1
BITMAP
0100
7100
4900
CA00
4EC0
5540
3D20
0B20
1920
11C0
1000
ENDCHAR
STARTCHAR 0026
ENCODING 38
SWIDTH 720 0
DWIDTH 9 0
BBX 7 9 1 0
BITMAP
38
48
48
58
22
D2
8C
CE
7A
ENDCHAR
STARTCHAR 0027
ENCODING 39
SWIDTH 160 0
DWIDTH 2 0
BBX 1 3 0 6
BITMAP
80
80
80
ENDCHAR
STARTCHAR 0028
ENCODING 40
SWIDTH 320 0
DWIDTH 4 0
BBX 2 12 1 -2
BITMAP
40
40
80
80
80
80
80
80
80
80
40
40
ENDCHAR
STARTCHAR 0029
ENCODING 41
SWIDTH 320 0
DWIDTH 4 0
BBX 2 12 1 -2
BITMAP
80
80
80
40
40
40
40
40
40
80
80
80
ENDCHAR
STARTCHAR 002A
ENCODING 42
SWIDTH 480 0
DWIDTH 6 0
BBX 4 4 1 5
BITMAP
40
F0
60
A0
ENDCHAR
STARTCHAR 002B
ENCODING 43
SWIDTH 640 0
DWIDTH 8 0
BBX 5 5 1 2
BITMAP
20
20
F8
20
20
ENDCHAR
STARTCHAR 002C
ENCODING 44
SWIDTH 320 0
DWIDTH 4 0
BBX 3 3 0 -2
BITMAP
20
40
C0
ENDCHAR
STARTCHAR 002D
ENCODING 45
SWIDTH 640 0
DWIDTH 8 0
BBX 4 1 2 4
BITMAP
F0
ENDCHAR
STARTCHAR 002E
ENCODING 46
SWIDTH 320 0
DWIDTH 4 0
BBX 2 2 1 0
BITMAP
C0
C0
ENDCHAR
STARTCHAR 002F
ENCODING 47
SWIDTH 480 0
DWIDTH 6 0
BBX 4 11 1 -1
BITMAP
10
10
20
20
20
40
40
40
80
80
80
ENDCHAR
STARTCHAR 0030
ENCODING 48
SWIDTH 640 0
DWIDTH 8 0
BBX 6 9 1 0
BITMAP
70
C8
8C
8C
84
84
8C
C8
70
ENDCHAR
STARTCHAR 0031
ENCODING 49
SWIDTH 640 0
DWIDTH 8 0
BBX 4 9 2 0
BITMAP
60
E0
20
20
20
20
20
20
F0
ENDCHAR
STARTCHAR 0032
ENCODING 50
SWIDTH 640 0
DWIDTH 8 0
BBX 5 9 1 0
BITMAP
70
08
08
18
30
60
40
80
F8
ENDCHAR
STARTCHAR 0033
ENCODING 51
SWIDTH 640 0
DWIDTH 8 0
BBX 5 9 1 0
BITMAP
F0
98
08
18
70
08
08
88
F0
ENDCHAR
STARTCHAR 0034
ENCODING 52
SWIDTH 640 0
DWIDTH 8 0
BBX 6 9 1 0
BITMAP
20
20
40
48
C8
88
FC
08
08
ENDCHAR
STARTCHAR 0035
ENCODING 53
SWIDTH 640 0
DWIDTH 8 0
BBX 5 9 1 0
BITMAP
78
40
40
70
08
08
08
08
F0
ENDCHAR
STARTCHAR 0036
ENCODING 54
SWIDTH 640 0
DWIDTH 8 0
BBX 6 9 1 0
BITMAP
38
60
C0
B8
C8
8C
8C
C8
70
ENDCHAR
STARTCHAR 0037
ENCODING 55
SWIDTH 640 0
DWIDTH 8 0
BBX 6 9 1 0
BITMAP
FC
08
10
10
20
20
20
60
60
ENDCHAR
STARTCHAR 0038
ENCODING 56
SWIDTH 640 0
DWIDTH 8 0
BBX 6 9 1 0
BITMAP
70
88
88
58
78
8C
84
8C
78
ENDCHAR
STARTCHAR 0039
ENCODING 57
SWIDTH 640 0
DWIDTH 8 0
BBX 5 9 1 0
BITMAP
70
88
88
88
88
78
08
08
F0
ENDCHAR
STARTCHAR 003A
ENCODING 58
SWIDTH 320 0
DWIDTH 4 0
BBX 2 7 1 0
BITMAP
C0
C0
00
00
00
C0
C0
ENDCHAR
STARTCHAR 003B
ENCODING 59
SWIDTH 320 0
DWIDTH 4 0
BBX 3 9 0 -2
BITMAP
60
60
00
00
00
00
60
40
80
ENDCHAR
STARTCHAR 003C
ENCODING 60
SWIDTH 640 0
DWIDTH 8 0
BBX 4 6 2 1
BITMAP
10
60
80
80
60
10
ENDCHAR
STARTCHAR 003D
ENCODING 61
SWIDTH 640 0
DWIDTH 8 0
BBX 5 3 1 3
BITMAP
F8
00
F8
ENDCHAR
STARTCHAR 003E
ENCODING 62
SWIDTH 640 0
DWIDTH 8 0
BBX 4 6 2 1
BITMAP
80
C0
30
30
C0
80
ENDCHAR
STARTCHAR 003F
ENCODING 63
SWIDTH 480 0
DWIDTH 6 0
BBX 4 9 1 0
BITMAP
F0
90
10
30
60
40
00
40
40
ENDCHAR
STARTCHAR 0040
ENCODING 64
SWIDTH 1040 0
DWIDTH 13 0
BBX 11 12 1 -3
BITMAP
0F00
30C0
4060
4F20
9120
9120
9120
9160
DFC0
4000
6080
1F00
ENDCHAR
STARTCHAR 0041
ENCODING 65
SWIDTH 640 0
DWIDTH 8 0
BBX 8 9 0 0
BITMAP
18
18
14
24
22
7E
42
41
81
ENDCHAR
STARTCHAR 0042
ENCODING 66
SWIDTH 640 0
DWIDTH 8 0
BBX 6 9 1 0
BITMAP
F8
8C
84
8C
F8
84
84
84
F8
ENDCHAR
STARTCHAR 0043
ENCODING 67
SWIDTH 560 0
DWIDTH 7 0
BBX 6 9 1 0
BITMAP
3C
40
80
80
80
80
80
C4
3C
ENDCHAR
STARTCHAR 0044
ENCODING 68
SWIDTH 720 0
DWIDTH 9 0
BBX 7 9 1 0
BITMAP
F8
8C
86
82
82
82
86
8C
F8
ENDCHAR
STARTCHAR 0045
ENCODING 69
SWIDTH 560 0
DWIDTH 7 0
BBX 5 9 1 0
BITMAP
F8
80
80
80
F8
80
80
80
F8
ENDCHAR
STARTCHAR 0046
ENCODING 70
SWIDTH 560 0
DWIDTH 7 0
BBX 5 9 1 0
BITMAP
F8
80
80
80
F8
80
80
80
80
ENDCHAR
STARTCHAR 0047
ENCODING 71
SWIDTH 640 0
DWIDTH 8 0
BBX 7 9 1 0
BITMAP
3C
C4
80
80
8E
86
86
C6
7A
ENDCHAR
STARTCHAR 0048
ENCODING 72
SWIDTH 720 0
DWIDTH 9 0
BBX 7 9 1 0
BITMAP
82
82
82
82
FE
82
82
82
82
ENDCHAR
STARTCHAR 0049
ENCODING 73
SWIDTH 240 0
DWIDTH 3 0
BBX 1 9 1 0
BITMAP
80
80
80
80
80
80
80
80
80
ENDCHAR
STARTCHAR 004A
ENCODING 74
SWIDTH 400 0
DWIDTH 5 0
BBX 4 9 0 0
BITMAP
10
10
10
10
10
10
10
90
E0
ENDCHAR
STARTCHAR 004B
ENCODING 75
SWIDTH 640 0
DWIDTH 8 0
BBX 6 9 1 0
BITMAP
84
88
90
A0
E0
B0
98
8C
84
ENDCHAR
STARTCHAR 004C
ENCODING 76
SWIDTH 480 0
DWIDTH 6 0
BBX 5 9 1 0
BITMAP
80
80
80
80
80
80
80
80
F8
ENDCHAR
STARTCHAR 004D
ENCODING 77
SWIDTH 800 0
DWIDTH 10 0
BBX 8 9 1 0
BITMAP
C3
C3
A3
A5
95
99
99
81
81
ENDCHAR
STARTCHAR 004E
ENCODING 78
SWIDTH 720 0
DWIDTH 9 0
BBX 7 9 1 0
BITMAP
C2
C2
A2
A2
92
9A
8A
8E
86
ENDCHAR
STARTCHAR 004F
ENCODING 79
SWIDTH 800 0
DWIDTH 10 0
BBX 8 9 1 0
BITMAP
3C
46
82
81
81
81
82
46
3C
ENDCHAR
STARTCHAR 0050
ENCODING 80
SWIDTH 560 0
DWIDTH 7 0
BBX 6 9 1 0
BITMAP
F8
8C
84
84
8C
F0
80
80
80
ENDCHAR
STARTCHAR 0051
ENCODING 81
SWIDTH 800 0
DWIDTH 10 0
BBX 8 9 1 0
BITMAP
3C
46
82
83
81
83
82
46
3D
ENDCHAR
STARTCHAR 0052
ENCODING 82
SWIDTH 640 0
DWIDTH 8 0
BBX 6 9 1 0
BITMAP
F8
8C
84
8C
F0
98
88
84
84
ENDCHAR
STARTCHAR 0053
ENCODING 83
SWIDTH 560 0
DWIDTH 7 0
BBX 5 9 1 0
BITMAP
78
80
80
C0
70
08
08
08
F0
ENDCHAR
STARTCHAR 0054
ENCODING 84
SWIDTH 560 0
DWIDTH 7 0
BBX 7 9 0 0
BITMAP
FE
10
10
10
10
10
10
10
10
ENDCHAR
STARTCHAR 0055
ENCODING 85
SWIDTH 640 0
DWIDTH 8 0
BBX 6 9 1 0
BITMAP
84
84
84
84
84
84
84
C4
78
ENDCHAR
STARTCHAR 0056
ENCODING 86
SWIDTH 640 0
DWIDTH 8 0
BBX 8 9 0 0
BITMAP
81
42
42
62
24
24
3C
18
18
ENDCHAR
STARTCHAR 0057
ENCODING 87
SWIDTH 960 0
DWIDTH 12 0
BBX 12 9 0 0
BITMAP
8030
C620
4620
4620
6940
2940
2940
3140
3080
ENDCHAR
STARTCHAR 0058
ENCODING 88
SWIDTH 640 0
DWIDTH 8 0
BBX 7 9 0 0
BITMAP
42
46
24
38
18
38
64
46
82
ENDCHAR
STARTCHAR 0059
ENCODING 89
SWIDTH 560 0
DWIDTH 7 0
BBX 7 9 0 0
BITMAP
82
42
64
2C
38
10
10
10
10
ENDCHAR
STARTCHAR 005A
ENCODING 90
SWIDTH 560 0
DWIDTH 7 0
BBX 7 9 0 0
BITMAP
7E
04
08
08
10
20
20
40
FE
ENDCHAR
STARTCHAR 005B
ENCODING 91
SWIDTH 320 0
DWIDTH 4 0
BBX 2 10 1 -1
BITMAP
C0
80
80
80
80
80
80
80
80
C0
ENDCHAR
STARTCHAR 005C
ENCODING 92
SWIDTH 480 0
DWIDTH 6 0
BBX 4 11 1 -1
BITMAP
80
80
80
40
40
40
20
20
20
10
10
ENDCHAR
STARTCHAR 005D
ENCODING 93
SWIDTH 320 0
DWIDTH 4 0
BBX 2 10 1 -1
BITMAP
C0
40
40
40
40
40
40
40
40
C0
ENDCHAR
STARTCHAR 005E
ENCODING 94
SWIDTH 640 0
DWIDTH 8 0
BBX 5 3 1 6
BITMAP
30
58
88
ENDCHAR
STARTCHAR 005F
ENCODING 95
SWIDTH 640 0
DWIDTH 8 0
BBX 7 1 0 -2
BITMAP
FE
ENDCHAR
STARTCHAR 0060
ENCODING 96
SWIDTH 320 0
DWIDTH 4 0
BBX 2 3 1 7
BITMAP
80
C0
40
ENDCHAR
STARTCHAR 0061
ENCODING 97
SWIDTH 640 0
DWIDTH 8 0
BBX 6 7 1 0
BITMAP
78
88
88
88
88
88
74
ENDCHAR
STARTCHAR 0062
ENCODING 98
SWIDTH 560 0
DWIDTH 7 0
BBX 6 10 1 0
BITMAP
80
80
80
F8
88
84
84
84
88
F0
ENDCHAR
STARTCHAR 0063
ENCODING 99
SWIDTH 480 0
DWIDTH 6 0
BBX 5 7 1 0
BITMAP
70
80
80
80
80
80
78
ENDCHAR
STARTCHAR 0064
ENCODING 100
SWIDTH 640 0
DWIDTH 8 0
BBX 6 10 1 0
BITMAP
08
08
08
78
88
88
88
88
88
74
ENDCHAR
STARTCHAR 0065
ENCODING 101
SWIDTH 560 0
DWIDTH 7 0
BBX 5 7 1 0
BITMAP
70
88
88
F8
80
80
78
ENDCHAR
STARTCHAR 0066
ENCODING 102
SWIDTH 320 0
DWIDTH 4 0
BBX 5 9 0 0
BITMAP
38
40
40
F0
40
40
40
40
40
ENDCHAR
STARTCHAR 0067
ENCODING 103
SWIDTH 560 0
DWIDTH 7 0
BBX 5 10 1 -3
BITMAP
78
88
88
88
88
88
78
08
08
F0
ENDCHAR
STARTCHAR 0068
ENCODING 104
SWIDTH 560 0
DWIDTH 7 0
BBX 5 10 1 0
BITMAP
80
80
80
B8
C8
88
88
88
88
88
ENDCHAR
STARTCHAR 0069
ENCODING 105
SWIDTH 240 0
DWIDTH 3 0
BBX 1 10 1 0
BITMAP
80
80
00
80
80
80
80
80
80
80
ENDCHAR
STARTCHAR 006A
ENCODING 106
SWIDTH 240 0
DWIDTH 3 0
BBX 3 13 -1 -3
BITMAP
20
20
00
20
20
20
20
20
20
20
20
20
E0
ENDCHAR
STARTCHAR 006B
ENCODING 107
SWIDTH 480 0
DWIDTH 6 0
BBX 5 9 1 0
BITMAP
80
80
80
90
A0
C0
A0
90
88
ENDCHAR
STARTCHAR 006C
ENCODING 108
SWIDTH 320 0
DWIDTH 4 0
BBX 3 9 1 0
BITMAP
80
80
80
80
80
80
80
80
60
ENDCHAR
STARTCHAR 006D
ENCODING 109
SWIDTH 880 0
DWIDTH 11 0
BBX 9 7 1 0
BITMAP
BB80
CC80
8880
8880
8880
8880
8880
ENDCHAR
STARTCHAR 006E
ENCODING 110
SWIDTH 560 0
DWIDTH 7 0
BBX 5 7 1 0
BITMAP
B8
C8
88
88
88
88
88
ENDCHAR
STARTCHAR 006F
ENCODING 111
SWIDTH 560 0
DWIDTH 7 0
BBX 7 7 0 0
BITMAP
3C
44
42
C2
42
44
3C
ENDCHAR
STARTCHAR 0070
ENCODING 112
SWIDTH 640 0
DWIDTH 8 0
BBX 6 10 1 -3
BITMAP
B8
CC
84
84
84
CC
B8
80
80
80
ENDCHAR
STARTCHAR 0071
ENCODING 113
SWIDTH 560 0
DWIDTH 7 0
BBX 5 10 1 -3
BITMAP
78
88
88
88
88
88
78
08
08
08
ENDCHAR
STARTCHAR 0072
ENCODING 114
SWIDTH 400 0
DWIDTH 5 0
BBX 4 7 1 0
BITMAP
B0
C0
80
80
80
80
80
ENDCHAR
STARTCHAR 0073
ENCODING 115
SWIDTH 480 0
DWIDTH 6 0
BBX 4 7 1 0
BITMAP
F0
80
80
70
10
10
F0
ENDCHAR
STARTCHAR 0074
ENCODING 116
SWIDTH 400 0
DWIDTH 5 0
BBX 5 8 0 0
BITMAP
40
40
F0
40
40
40
40
38
ENDCHAR
STARTCHAR 0075
ENCODING 117
SWIDTH 640 0
DWIDTH 8 0
BBX 6 7 1 0
BITMAP
88
88
88
88
88
88
74
ENDCHAR
STARTCHAR 0076
ENCODING 118
SWIDTH 560 0
DWIDTH 7 0
BBX 7 7 0 0
BITMAP
86
44
44
68
28
38
10
ENDCHAR
STARTCHAR 0077
ENCODING 119
SWIDTH 800 0
DWIDTH 10 0
BBX 10 7 0 0
BITMAP
8040
4CC0
4C80
4A80
3280
3300
3300
ENDCHAR
STARTCHAR 0078
ENCODING 120
SWIDTH 480 0
DWIDTH 6 0
BBX 6 7 0 0
BITMAP
84
48
30
30
38
48
84
ENDCHAR
STARTCHAR 0079
ENCODING 121
SWIDTH 560 0
DWIDTH 7 0
BBX 6 10 0 -3
BITMAP
84
C4
44
68
28
28
10
10
30
E0
ENDCHAR
STARTCHAR 007A
ENCODING 122
SWIDTH 480 0
DWIDTH 6 0
BBX 5 7 0 0
BITMAP
F8
08
10
30
20
40
F8
ENDCHAR
STARTCHAR 007B
ENCODING 123
SWIDTH 320 0
DWIDTH 4 0
BBX 3 10 1 -1
BITMAP
60
C0
80
80
80
80
80
80
C0
60
ENDCHAR
STARTCHAR 007C
ENCODING 124
SWIDTH 320 0
DWIDTH 4 0
BBX 1 11 1 -1
BITMAP
80
80
80
80
80
80
80
80
80
80
80
ENDCHAR
STARTCHAR 007D
ENCODING 125
SWIDTH 320 0
DWIDTH 4 0
BBX 3 10 0 -1
BITMAP
C0
40
40
40
20
20
40
40
40
C0
ENDCHAR
STARTCHAR 007E
ENCODING 126
SWIDTH 640 0
DWIDTH 8 0
BBX 5 2 1 3
BITMAP
E0
38
ENDCHAR
STARTCHAR 00A0
ENCODING 160
SWIDTH 320 0
DWIDTH 4 0
BBX 0 0 0 0
BITMAP
ENDCHAR
STARTCHAR 00A1
ENCODING 161
SWIDTH 320 0
DWIDTH 4 0
BBX 2 10 1 -3
BITMAP
C0
C0
00
80
80
C0
C0
C0
C0
C0
ENDCHAR
STARTCHAR 00A2
ENCODING 162
SWIDTH 480 0
DWIDTH 6 0
BBX 5 9 0 -1
BITMAP
10
38
60
40
C0
40
60
38
10
ENDCHAR
STARTCHAR 00A3
ENCODING 163
SWIDTH 640 0
DWIDTH 8 0
BBX 5 9 1 0
BITMAP
38
40
40
40
F0
40
40
C0
F8
ENDCHAR
STARTCHAR 00A4
ENCODING 164
SWIDTH 640 0
DWIDTH 8 0
BBX 5 7 1 1
BITMAP
88
78
C8
88
C8
78
88
ENDCHAR
STARTCHAR 00A5
ENCODING 165
SWIDTH 640 0
DWIDTH 8 0
BBX 7 9 0 0
BITMAP
82
42
64
24
38
7C
10
7C
10
ENDCHAR
STARTCHAR 00A6
ENCODING 166
SWIDTH 320 0
DWIDTH 4 0
BBX 1 11 1 -1
BITMAP
80
80
80
80
00
00
80
80
80
80
80
ENDCHAR
STARTCHAR 00A7
ENCODING 167
SWIDTH 640 0
DWIDTH 8 0
BBX 5 10 1 -1
BITMAP
78
40
40
70
48
C8
70
18
08
70
ENDCHAR
STARTCHAR 00A8
ENCODING 168
SWIDTH 400 0
DWIDTH 5 0
BBX 3 1 1 8
BITMAP
A0
ENDCHAR
STARTCHAR 00A9
ENCODING 169
SWIDTH 880 0
DWIDTH 11 0
BBX 9 9 1 0
BITMAP
1E00
6100
5C80
9080
A080
9080
5C80
4100
3E00
ENDCHAR
STARTCHAR 00AA
ENCODING 170
SWIDTH 640 0
DWIDTH 8 0
BBX 5 7 1 2
BITMAP
78
88
88
C8
78
00
78
ENDCHAR
STARTCHAR 00AB
ENCODING 171
SWIDTH 560 0
DWIDTH 7 0
BBX 5 5 1 2
BITMAP
48
D0
A0
D0
48
ENDCHAR
STARTCHAR 00AC
ENCODING 172
SWIDTH 640 0
DWIDTH 8 0
BBX 6 4 1 1
BITMAP
FC
04
04
04
ENDCHAR
STARTCHAR 00AD
ENCODING 173
SWIDTH 640 0
DWIDTH 8 0
BBX 4 1 2 4
BITMAP
F0
ENDCHAR
STARTCHAR 00AE
ENCODING 174
SWIDTH 880 0
DWIDTH 11 0
BBX 9 9 1 0
BITMAP
1E00
6100
5C80
9280
9C80
9480
5280
4100
3E00
ENDCHAR
STARTCHAR 00AF
ENCODING 175
SWIDTH 400 0
DWIDTH 5 0
BBX 3 1 1 8
BITMAP
E0
ENDCHAR
STARTCHAR 00B0
ENCODING 176
SWIDTH 480 0
DWIDTH 6 0
BBX 3 4 1 6
BITMAP
E0
A0
A0
E0
ENDCHAR
STARTCHAR 00B1
ENCODING 177
SWIDTH 640 0
DWIDTH 8 0
BBX 4 7 2 1
BITMAP
40
40
F0
40
40
00
F0
ENDCHAR
STARTCHAR 00B2
ENCODING 178
SWIDTH 480 0
DWIDTH 6 0
BBX 4 6 1 3
BITMAP
E0
10
20
40
80
F0
ENDCHAR
STARTCHAR 00B3
ENCODING 179
SWIDTH 480 0
DWIDTH 6 0
BBX 4 5 1 4
BITMAP
E0
10
60
10
E0
ENDCHAR
STARTCHAR 00B4
ENCODING 180
SWIDTH 320 0
DWIDTH 4 0
BBX 2 3 1 7
BITMAP
40
C0
80
ENDCHAR
STARTCHAR 00B5
ENCODING 181
SWIDTH 640 0
DWIDTH 8 0
BBX 5 10 1 -3
BITMAP
88
88
88
88
88
88
F8
80
80
80
ENDCHAR
STARTCHAR 00B6
ENCODING 182
SWIDTH 720 0
DWIDTH 9 0
BBX 7 11 1 -1
BITMAP
7A
4A
8A
CA
7A
0A
0A
0A
0A
0A
0A
ENDCHAR
STARTCHAR 00B7
ENCODING 183
SWIDTH 320 0
DWIDTH 4 0
BBX 2 1 1 4
BITMAP
C0
ENDCHAR
STARTCHAR 00B8
ENCODING 184
SWIDTH 320 0
DWIDTH 4 0
BBX 3 3 0 -3
BITMAP
40
20
E0
ENDCHAR
STARTCHAR 00B9
ENCODING 185
SWIDTH 480 0
DWIDTH 6 0
BBX 4 6 1 3
BITMAP
60
A0
20
20
20
F0
ENDCHAR
STARTCHAR 00BA
ENCODING 186
SWIDTH 640 0
DWIDTH 8 0
BBX 5 7 1 2
BITMAP
70
48
88
48
70
00
78
ENDCHAR
STARTCHAR 00BB
ENCODING 187
SWIDTH 560 0
DWIDTH 7 0
BBX 5 5 1 2
BITMAP
90
58
28
58
90
ENDCHAR
STARTCHAR 00BC
ENCODING 188
SWIDTH 880 0
DWIDTH 11 0
BBX 10 11 1 -1
BITMAP
0100
4300
C200
4600
4400
4D00
EB00
1A80
13C0
2080
2000
ENDCHAR
STARTCHAR 00BD
ENCODING 189
SWIDTH 880 0
DWIDTH 11 0
BBX 10 11 1 -1
BITMAP
0100
C300
4200
4400
4580
4A40
E840
1080
1100
23C0
2000
ENDCHAR
STARTCHAR 00BE
ENCODING 190
SWIDTH 880 0
DWIDTH 11 0
BBX 10 11 1 -1
BITMAP
0100
E300
2200
E600
2500
ED00
0A80
1280
17C0
2080
2000
ENDCHAR
STARTCHAR 00BF
ENCODING 191
SWIDTH 480 0
DWIDTH 6 0
BBX 4 10 1 -3
BITMAP
20
20
00
20
20
60
C0
80
90
F0
ENDCHAR
STARTCHAR 00C0
ENCODING 192
SWIDTH 640 0
DWIDTH 8 0
BBX 8 12 0 0
BITMAP
10
18
08
18
18
14
24
22
7E
42
41
81
ENDCHAR
STARTCHAR 00C1
ENCODING 193
SWIDTH 640 0
DWIDTH 8 0
BBX 8 12 0 0
BITMAP
08
18
10
18
18
14
24
22
7E
42
41
81
ENDCHAR
STARTCHAR 00C2
ENCODING 194
SWIDTH 640 0
DWIDTH 8 0
BBX 8 11 0 0
BITMAP
3C
00
18
18
14
24
22
7E
42
41
81
ENDCHAR
STARTCHAR 00C3
ENCODING 195
SWIDTH 640 0
DWIDTH 8 0
BBX 8 11 0 0
BITMAP
3C
20
18
18
14
24
22
7E
42
41
81
ENDCHAR
STARTCHAR 00C4
ENCODING 196
SWIDTH 640 0
DWIDTH 8 0
BBX 8 11 0 0
BITMAP
34
00
18
18
14
24
22
7E
42
41
81
ENDCHAR
STARTCHAR 00C5
ENCODING 197
SWIDTH 640 0
DWIDTH 8 0
BBX 8 11 0 0
BITMAP
18
14
18
18
14
24
22
7E
42
41
81
ENDCHAR
STARTCHAR 00C6
ENCODING 198
SWIDTH 880 0
DWIDTH 11 0
BBX 11 9 0 0
BITMAP
07E0
0E00
0A00
1A00
33C0
2200
7E00
4200
83E0
ENDCHAR
STARTCHAR 00C7
ENCODING 199
SWIDTH 560 0
DWIDTH 7 0
BBX 6 12 1 -3
BITMAP
3C
40
80
80
80
80
80
C4
3C
20
18
30
ENDCHAR
STARTCHAR 00C8
ENCODING 200
SWIDTH 560 0
DWIDTH 7 0
BBX 5 12 1 0
BITMAP
40
70
10
F8
80
80
80
F8
80
80
80
F8
ENDCHAR
STARTCHAR 00C9
ENCODING 201
SWIDTH 560 0
DWIDTH 7 0
BBX 5 12 1 0
BITMAP
10
30
40
F8
80
80
80
F8
80
80
80
F8
ENDCHAR
STARTCHAR 00CA
ENCODING 202
SWIDTH 560 0
DWIDTH 7 0
BBX 5 11 1 0
BITMAP
78
00
F8
80
80
80
F8
80
80
80
F8
ENDCHAR
STARTCHAR 00CB
ENCODING 203
SWIDTH 560 0
DWIDTH 7 0
BBX 5 11 1 0
BITMAP
58
00
F8
80
80
80
F8
80
80
80
F8
ENDCHAR
STARTCHAR 00CC
ENCODING 204
SWIDTH 240 0
DWIDTH 3 0
BBX 3 12 0 0
BITMAP
80
60
20
40
40
40
40
40
40
40
40
40
ENDCHAR
STARTCHAR 00CD
ENCODING 205
SWIDTH 240 0
DWIDTH 3 0
BBX 3 12 0 0
BITMAP
20
60
80
40
40
40
40
40
40
40
40
40
ENDCHAR
STARTCHAR 00CE
ENCODING 206
SWIDTH 240 0
DWIDTH 3 0
BBX 4 11 0 0
BITMAP
F0
00
40
40
40
40
40
40
40
40
40
ENDCHAR
STARTCHAR 00CF
ENCODING 207
SWIDTH 240 0
DWIDTH 3 0
BBX 4 11 0 0
BITMAP
B0
00
40
40
40
40
40
40
40
40
40
ENDCHAR
STARTCHAR 00D0
ENCODING 208
SWIDTH 720 0
DWIDTH 9 0
BBX 8 9 0 0
BITMAP
7C
62
63
61
F1
61
63
62
7C
ENDCHAR
STARTCHAR 00D1
ENCODING 209
SWIDTH 720 0
DWIDTH 9 0
BBX 7 11 1 0
BITMAP
38
00
C2
C2
A2
A2
92
9A
8A
8E
86
ENDCHAR
STARTCHAR 00D2
ENCODING 210
SWIDTH 800 0
DWIDTH 10 0
BBX 8 12 1 0
BITMAP
20
18
08
3C
46
82
81
81
81
82
46
3C
ENDCHAR
STARTCHAR 00D3
ENCODING 211
SWIDTH 800 0
DWIDTH 10 0
BBX 8 12 1 0
BITMAP
08
18
10
3C
46
82
81
81
81
82
46
3C
ENDCHAR
STARTCHAR 00D4
ENCODING 212
SWIDTH 800 0
DWIDTH 10 0
BBX 8 11 1 0
BITMAP
38
24
3C
46
82
81
81
81
82
46
3C
ENDCHAR
STARTCHAR 00D5
ENCODING 213
SWIDTH 800 0
DWIDTH 10 0
BBX 8 11 1 0
BITMAP
3C
20
3C
46
82
81
81
81
82
46
3C
ENDCHAR
STARTCHAR 00D6
ENCODING 214
SWIDTH 800 0
DWIDTH 10 0
BBX 8 11 1 0
BITMAP
2C
00
3C
46
82
81
81
81
82
46
3C
ENDCHAR
STARTCHAR 00D7
ENCODING 215
SWIDTH 640 0
DWIDTH 8 0
BBX 4 5 2 2
BITMAP
90
A0
40
A0
90
ENDCHAR
STARTCHAR 00D8
ENCODING 216
SWIDTH 800 0
DWIDTH 10 0
BBX 8 11 1 -1
BITMAP
02
3C
46
8A
89
91
91
A2
66
7C
40
ENDCHAR
STARTCHAR 00D9
ENCODING 217
SWIDTH 640 0
DWIDTH 8 0
BBX 6 12 1 0
BITMAP
20
30
10
84
84
84
84
84
84
84
C4
78
ENDCHAR
STARTCHAR 00DA
ENCODING 218
SWIDTH 640 0
DWIDTH 8 0
BBX 6 12 1 0
BITMAP
10
18
20
84
84
84
84
84
84
84
C4
78
ENDCHAR
STARTCHAR 00DB
ENCODING 219
SWIDTH 640 0
DWIDTH 8 0
BBX 6 11 1 0
BITMAP
78
00
84
84
84
84
84
84
84
C4
78
ENDCHAR
STARTCHAR 00DC
ENCODING 220
SWIDTH 640 0
DWIDTH 8 0
BBX 6 11 1 0
BITMAP
68
00
84
84
84
84
84
84
84
C4
78
ENDCHAR
STARTCHAR 00DD
ENCODING 221
SWIDTH 560 0
DWIDTH 7 0
BBX 7 12 0 0
BITMAP
08
18
10
82
42
64
2C
38
10
10
10
10
ENDCHAR
STARTCHAR 00DE
ENCODING 222
SWIDTH 560 0
DWIDTH 7 0
BBX 6 9 1 0
BITMAP
80
80
F8
8C
84
8C
F8
80
80
ENDCHAR
STARTCHAR 00DF
ENCODING 223
SWIDTH 640 0
DWIDTH 8 0
BBX 6 13 1 -3
BITMAP
38
44
44
C4
C8
D8
C4
C4
C4
F8
C0
C0
C0
ENDCHAR
STARTCHAR 00E0
ENCODING 224
SWIDTH 640 0
DWIDTH 8 0
BBX 6 10 1 0
BITMAP
20
10
00
78
88
88
88
88
88
74
ENDCHAR
STARTCHAR 00E1
ENCODING 225
SWIDTH 640 0
DWIDTH 8 0
BBX 6 10 1 0
BITMAP
10
20
00
78
88
88
88
88
88
74
ENDCHAR
STARTCHAR 00E2
ENCODING 226
SWIDTH 640 0
DWIDTH 8 0
BBX 6 10 1 0
BITMAP
30
58
48
78
88
88
88
88
88
74
ENDCHAR
STARTCHAR 00E3
ENCODING 227
SWIDTH 640 0
DWIDTH 8 0
BBX 6 9 1 0
BITMAP
78
40
78
88
88
88
88
88
74
ENDCHAR
STARTCHAR 00E4
ENCODING 228
SWIDTH 640 0
DWIDTH 8 0
BBX 6 9 1 0
BITMAP
58
00
78
88
88
88
88
88
74
ENDCHAR
STARTCHAR 00E5
ENCODING 229
SWIDTH 640 0
DWIDTH 8 0
BBX 6 11 1 0
BITMAP
30
50
30
00
78
88
88
88
88
88
74
ENDCHAR
STARTCHAR 00E6
ENCODING 230
SWIDTH 880 0
DWIDTH 11 0
BBX 10 7 1 0
BITMAP
F780
1C80
0840
FFC0
8800
9C00
F780
ENDCHAR
STARTCHAR 00E7
ENCODING 231
SWIDTH 480 0
DWIDTH 6 0
BBX 5 10 1 -3
BITMAP
70
80
80
80
80
80
78
20
10
60
ENDCHAR
STARTCHAR 00E8
ENCODING 232
SWIDTH 560 0
DWIDTH 7 0
BBX 5 10 1 0
BITMAP
60
30
00
70
88
88
F8
80
80
78
ENDCHAR
STARTCHAR 00E9
ENCODING 233
SWIDTH 560 0
DWIDTH 7 0
BBX 5 10 1 0
BITMAP
10
60
00
70
88
88
F8
80
80
78
ENDCHAR
STARTCHAR 00EA
ENCODING 234
SWIDTH 560 0
DWIDTH 7 0
BBX 5 10 1 0
BITMAP
20
58
90
70
88
88
F8
80
80
78
ENDCHAR
STARTCHAR 00EB
ENCODING 235
SWIDTH 560 0
DWIDTH 7 0
BBX 5 9 1 0
BITMAP
50
00
70
88
88
F8
80
80
78
ENDCHAR
STARTCHAR 00EC
ENCODING 236
SWIDTH 240 0
DWIDTH 3 0
BBX 3 10 0 0
BITMAP
C0
20
00
40
40
40
40
40
40
40
ENDCHAR
STARTCHAR 00ED
ENCODING 237
SWIDTH 240 0
DWIDTH 3 0
BBX 3 10 0 0
BITMAP
20
C0
00
40
40
40
40
40
40
40
ENDCHAR
STARTCHAR 00EE
ENCODING 238
SWIDTH 240 0
DWIDTH 3 0
BBX 4 10 0 0
BITMAP
E0
90
00
40
40
40
40
40
40
40
ENDCHAR
STARTCHAR 00EF
ENCODING 239
SWIDTH 240 0
DWIDTH 3 0
BBX 3 10 0 0
BITMAP
A0
A0
00
40
40
40
40
40
40
40
ENDCHAR
STARTCHAR 00F0
ENCODING 240
SWIDTH 560 0
DWIDTH 7 0
BBX 6 10 0 0
BITMAP
08
78
18
04
34
4C
84
84
48
78
ENDCHAR
STARTCHAR 00F1
ENCODING 241
SWIDTH 560 0
DWIDTH 7 0
BBX 5 9 1 0
BITMAP
78
40
B8
C8
88
88
88
88
88
ENDCHAR
STARTCHAR 00F2
ENCODING 242
SWIDTH 560 0
DWIDTH 7 0
BBX 7 10 0 0
BITMAP
10
08
00
3C
44
42
C2
42
44
3C
ENDCHAR
STARTCHAR 00F3
ENCODING 243
SWIDTH 560 0
DWIDTH 7 0
BBX 7 10 0 0
BITMAP
08
10
00
3C
44
42
C2
42
44
3C
ENDCHAR
STARTCHAR 00F4
ENCODING 244
SWIDTH 560 0
DWIDTH 7 0
BBX 7 10 0 0
BITMAP
18
2C
44
3C
44
42
C2
42
44
3C
ENDCHAR
STARTCHAR 00F5
ENCODING 245
SWIDTH 560 0
DWIDTH 7 0
BBX 7 9 0 0
BITMAP
3C
00
3C
44
42
C2
42
44
3C
ENDCHAR
STARTCHAR 00F6
ENCODING 246
SWIDTH 560 0
DWIDTH 7 0
BBX 7 9 0 0
BITMAP
2C
00
3C
44
42
C2
42
44
3C
ENDCHAR
STARTCHAR 00F7
ENCODING 247
SWIDTH 640 0
DWIDTH 8 0
BBX 4 7 2 1
BITMAP
60
40
00
F0
00
40
60
ENDCHAR
STARTCHAR 00F8
ENCODING 248
SWIDTH 560 0
DWIDTH 7 0
BBX 7 9 0 -1
BITMAP
04
3C
4C
4A
D2
52
64
3C
40
ENDCHAR
STARTCHAR 00F9
ENCODING 249
SWIDTH 640 0
DWIDTH 8 0
BBX 6 10 1 0
BITMAP
40
30
00
88
88
88
88
88
88
74
ENDCHAR
STARTCHAR 00FA
ENCODING 250
SWIDTH 640 0
DWIDTH 8 0
BBX 6 10 1 0
BITMAP
10
60
00
88
88
88
88
88
88
74
ENDCHAR
STARTCHAR 00FB
ENCODING 251
SWIDTH 640 0
DWIDTH 8 0
BBX 6 10 1 0
BITMAP
70
48
00
88
88
88
88
88
88
74
ENDCHAR
STARTCHAR 00FC
ENCODING 252
SWIDTH 640 0
DWIDTH 8 0
BBX 6 10 1 0
BITMAP
50
50
00
88
88
88
88
88
88
74
ENDCHAR
STARTCHAR 00FD
ENCODING 253
SWIDTH 560 0
DWIDTH 7 0
BBX 6 13 0 -3
BITMAP
08
30
00
84
C4
44
68
28
28
10
10
30
E0
ENDCHAR
STARTCHAR 00FE
ENCODING 254
SWIDTH 560 0
DWIDTH 7 0
BBX 6 12 1 -3
BITMAP
80
80
F8
88
84
84
84
88
F0
80
80
80
ENDCHAR
STARTCHAR 00FF
ENCODING 255
SWIDTH 560 0
DWIDTH 7 0
BBX 6 12 0 -3
BITMAP
68
00
84
C4
44
68
28
28
10
10
30
E0
ENDCHAR
STARTCHAR 0127
ENCODING 295
SWIDTH 640 0
DWIDTH 8 0
BBX 7 10 0 0
BITMAP
40
F0
40
5C
64
46
46
46
46
46
ENDCHAR
STARTCHAR 0128
ENCODING 296
SWIDTH 240 0
DWIDTH 3 0
BBX 4 11 0 0
BITMAP
F0
00
40
40
40
40
40
40
40
40
40
ENDCHAR
STARTCHAR 0129
ENCODING 297
SWIDTH 240 0
DWIDTH 3 0
BBX 3 10 0 0
BITMAP
C0
60
00
40
40
40
40
40
40
40
ENDCHAR
STARTCHAR 0131
ENCODING 305
SWIDTH 240 0
DWIDTH 3 0
BBX 1 7 1 0
BITMAP
80
80
80
80
80
80
80
ENDCHAR
STARTCHAR 0132
ENCODING 306
SWIDTH 720 0
DWIDTH 9 0
BBX 7 9 1 0
BITMAP
82
82
82
82
82
82
82
86
9C
ENDCHAR
STARTCHAR 0133
ENCODING 307
SWIDTH 480 0
DWIDTH 6 0
BBX 5 13 1 -3
BITMAP
98
90
00
90
90
90
90
90
90
90
10
10
70
ENDCHAR
STARTCHAR 0134
ENCODING 308
SWIDTH 400 0
DWIDTH 5 0
BBX 6 11 0 0
BITMAP
3C
00
10
10
10
10
10
10
10
90
E0
ENDCHAR
STARTCHAR 0135
ENCODING 309
SWIDTH 240 0
DWIDTH 3 0
BBX 5 13 -1 -3
BITMAP
70
48
00
20
20
20
20
20
20
20
20
20
E0
ENDCHAR
STARTCHAR 0137
ENCODING 311
SWIDTH 480 0
DWIDTH 6 0
BBX 5 12 1 -3
BITMAP
80
80
80
90
A0
C0
A0
90
88
20
20
40
ENDCHAR
STARTCHAR 0138
ENCODING 312
SWIDTH 480 0
DWIDTH 6 0
BBX 5 7 1 0
BITMAP
90
90
A0
C0
A0
90
88
ENDCHAR
STARTCHAR 013F
ENCODING 319
SWIDTH 480 0
DWIDTH 6 0
BBX 5 9 1 0
BITMAP
80
80
80
80
B0
80
80
80
F8
ENDCHAR
STARTCHAR 0140
ENCODING 320
SWIDTH 400 0
DWIDTH 5 0
BBX 4 9 1 0
BITMAP
80
80
80
80
B0
80
80
80
60
ENDCHAR
STARTCHAR 0141
ENCODING 321
SWIDTH 560 0
DWIDTH 7 0
BBX 6 9 0 0
BITMAP
40
40
40
48
70
C0
40
40
7C
ENDCHAR
STARTCHAR 0142
ENCODING 322
SWIDTH 400 0
DWIDTH 5 0
BBX 4 9 0 0
BITMAP
40
40
40
70
C0
40
40
40
30
ENDCHAR
STARTCHAR 0143
ENCODING 323
SWIDTH 720 0
DWIDTH 9 0
BBX 7 12 1 0
BITMAP
08
18
20
C2
C2
A2
A2
92
9A
8A
8E
86
ENDCHAR
STARTCHAR 0144
ENCODING 324
SWIDTH 560 0
DWIDTH 7 0
BBX 5 10 1 0
BITMAP
10
20
00
B8
C8
88
88
88
88
88
ENDCHAR
STARTCHAR 0152
ENCODING 338
SWIDTH 880 0
DWIDTH 11 0
BBX 11 9 0 0
BITMAP
1FE0
6200
4200
4200
C3C0
4200
4200
6200
1FE0
ENDCHAR
STARTCHAR 0153
ENCODING 339
SWIDTH 960 0
DWIDTH 12 0
BBX 12 7 0 0
BITMAP
39C0
4720
4220
C3F0
4200
4700
39E0
ENDCHAR
STARTCHAR 0154
ENCODING 340
SWIDTH 640 0
DWIDTH 8 0
BBX 6 12 1 0
BITMAP
10
30
20
F8
8C
84
8C
F0
98
88
84
84
ENDCHAR
STARTCHAR 0156
ENCODING 342
SWIDTH 640 0
DWIDTH 8 0
BBX 6 12 1 -3
BITMAP
F8
8C
84
8C
F0
98
88
84
84
10
20
20
ENDCHAR
STARTCHAR 0157
ENCODING 343
SWIDTH 400 0
DWIDTH 5 0
BBX 5 10 0 -3
BITMAP
58
60
40
40
40
40
40
00
40
80
ENDCHAR
STARTCHAR 0158
ENCODING 344
SWIDTH 640 0
DWIDTH 8 0
BBX 6 11 1 0
BITMAP
D8
20
F8
8C
84
8C
F0
98
88
84
84
ENDCHAR
STARTCHAR 0159
ENCODING 345
SWIDTH 400 0
DWIDTH 5 0
BBX 4 10 1 0
BITMAP
90
60
00
B0
C0
80
80
80
80
80
ENDCHAR
STARTCHAR 0237
ENCODING 567
SWIDTH 240 0
DWIDTH 3 0
BBX 3 10 -1 -3
BITMAP
20
20
20
20
20
20
20
20
20
E0
ENDCHAR
STARTCHAR 02C6
ENCODING 710
SWIDTH 480 0
DWIDTH 6 0
BBX 4 2 1 7
BITMAP
60
90
ENDCHAR
STARTCHAR 02C7
ENCODING 711
SWIDTH 480 0
DWIDTH 6 0
BBX 4 2 1 7
BITMAP
90
60
ENDCHAR
STARTCHAR 02DA
ENCODING 730
SWIDTH 320 0
DWIDTH 4 0
BBX 3 3 1 7
BITMAP
C0
A0
C0
ENDCHAR
STARTCHAR 02DC
ENCODING 732
SWIDTH 400 0
DWIDTH 5 0
BBX 4 1 1 7
BITMAP
F0
ENDCHAR
STARTCHAR 0307
ENCODING 775
SWIDTH 240 0
DWIDTH 3 0
BBX 2 1 0 8
BITMAP
C0
ENDCHAR
STARTCHAR 2013
ENCODING 8211
SWIDTH 640 0
DWIDTH 8 0
BBX 6 1 1 4
BITMAP
FC
ENDCHAR
STARTCHAR 2014
ENCODING 8212
SWIDTH 720 0
DWIDTH 9 0
BBX 7 1 1 4
BITMAP
FE
ENDCHAR
STARTCHAR 2018
ENCODING 8216
SWIDTH 240 0
DWIDTH 3 0
BBX 1 3 1 7
BITMAP
80
80
80
ENDCHAR
STARTCHAR 2019
ENCODING 8217
SWIDTH 240 0
DWIDTH 3 0
BBX 1 3 1 6
BITMAP
80
80
80
ENDCHAR
STARTCHAR 201A
ENCODING 8218
SWIDTH 240 0
DWIDTH 3 0
BBX 1 4 1 -2
BITMAP
80
80
80
80
ENDCHAR
STARTCHAR 201C
ENCODING 8220
SWIDTH 400 0
DWIDTH 5 0
BBX 4 3 1 7
BITMAP
A0
A0
B0
ENDCHAR
STARTCHAR 201D
ENCODING 8221
SWIDTH 400 0
DWIDTH 5 0
BBX 4 3 1 6
BITMAP
B0
B0
A0
ENDCHAR
STARTCHAR 201E
ENCODING 8222
SWIDTH 400 0
DWIDTH 5 0
BBX 4 4 1 -2
BITMAP
A0
B0
A0
A0
ENDCHAR
STARTCHAR 2022
ENCODING 8226
SWIDTH 480 0
DWIDTH 6 0
BBX 3 3 1 3
BITMAP
E0
E0
60
ENDCHAR
STARTCHAR 2039
ENCODING 8249
SWIDTH 400 0
DWIDTH 5 0
BBX 2 5 1 2
BITMAP
40
C0
80
C0
40
ENDCHAR
STARTCHAR 203A
ENCODING 8250
SWIDTH 400 0
DWIDTH 5 0
BBX 3 5 1 2
BITMAP
80
40
20
40
80
ENDCHAR
STARTCHAR 20AC
ENCODING 8364
SWIDTH 640 0
DWIDTH 8 0
BBX 7 9 0 0
BITMAP
1E
20
20
FC
60
FC
20
30
1E
ENDCHAR
STARTCHAR F6C3
ENCODING 63171
SWIDTH 240 0
DWIDTH 3 0
BBX 1 2 1 -3
BITMAP
80
80
ENDCHAR
ENDFONT
